<mxfile host="app.diagrams.net" modified="2024-05-28T17:44:00.710Z" agent="Mozilla/5.0 (Windows NT 10.0; Win64; x64) AppleWebKit/537.36 (KHTML, like Gecko) Chrome/125.0.0.0 Safari/537.36" etag="8A9ISbEOYNyFPZ5mVhmd" version="24.4.9" type="device">
  <diagram name="Page-1" id="M77tIjTJXpJ9lzBpE0A1">
    <mxGraphModel dx="792" dy="1105" grid="1" gridSize="10" guides="1" tooltips="1" connect="1" arrows="1" fold="1" page="1" pageScale="1" pageWidth="827" pageHeight="1169" math="0" shadow="0">
      <root>
        <mxCell id="0" />
        <mxCell id="1" parent="0" />
        <mxCell id="HOJdj6KpHouWojMZXQ97-63" style="edgeStyle=orthogonalEdgeStyle;rounded=0;orthogonalLoop=1;jettySize=auto;html=1;" edge="1" parent="1" source="HOJdj6KpHouWojMZXQ97-34" target="HOJdj6KpHouWojMZXQ97-36">
          <mxGeometry relative="1" as="geometry" />
        </mxCell>
        <mxCell id="HOJdj6KpHouWojMZXQ97-34" value="IOldSystem" style="rounded=0;whiteSpace=wrap;html=1;" vertex="1" parent="1">
          <mxGeometry x="110" y="60" width="120" height="60" as="geometry" />
        </mxCell>
        <mxCell id="HOJdj6KpHouWojMZXQ97-35" value="INewSystem" style="rounded=0;whiteSpace=wrap;html=1;" vertex="1" parent="1">
          <mxGeometry x="244" y="60" width="120" height="60" as="geometry" />
        </mxCell>
        <mxCell id="HOJdj6KpHouWojMZXQ97-58" style="edgeStyle=orthogonalEdgeStyle;rounded=0;orthogonalLoop=1;jettySize=auto;html=1;" edge="1" parent="1" source="HOJdj6KpHouWojMZXQ97-36" target="HOJdj6KpHouWojMZXQ97-37">
          <mxGeometry relative="1" as="geometry" />
        </mxCell>
        <mxCell id="HOJdj6KpHouWojMZXQ97-36" value="OldSystem" style="rounded=1;whiteSpace=wrap;html=1;" vertex="1" parent="1">
          <mxGeometry x="175" y="150" width="120" height="60" as="geometry" />
        </mxCell>
        <mxCell id="HOJdj6KpHouWojMZXQ97-61" style="edgeStyle=orthogonalEdgeStyle;rounded=0;orthogonalLoop=1;jettySize=auto;html=1;" edge="1" parent="1" source="HOJdj6KpHouWojMZXQ97-37" target="HOJdj6KpHouWojMZXQ97-51">
          <mxGeometry relative="1" as="geometry" />
        </mxCell>
        <mxCell id="HOJdj6KpHouWojMZXQ97-37" value="Adapter : INewSystem" style="shape=parallelogram;perimeter=parallelogramPerimeter;whiteSpace=wrap;html=1;fixedSize=1;" vertex="1" parent="1">
          <mxGeometry x="175" y="250" width="120" height="60" as="geometry" />
        </mxCell>
        <mxCell id="HOJdj6KpHouWojMZXQ97-41" value="SystemFacade" style="swimlane;fontStyle=0;childLayout=stackLayout;horizontal=1;startSize=30;horizontalStack=0;resizeParent=1;resizeParentMax=0;resizeLast=0;collapsible=1;marginBottom=0;whiteSpace=wrap;html=1;" vertex="1" parent="1">
          <mxGeometry x="160" y="500" width="150" height="60" as="geometry" />
        </mxCell>
        <mxCell id="HOJdj6KpHouWojMZXQ97-42" value="INewSystem" style="text;strokeColor=none;fillColor=none;align=left;verticalAlign=middle;spacingLeft=4;spacingRight=4;overflow=hidden;points=[[0,0.5],[1,0.5]];portConstraint=eastwest;rotatable=0;whiteSpace=wrap;html=1;" vertex="1" parent="HOJdj6KpHouWojMZXQ97-41">
          <mxGeometry y="30" width="150" height="30" as="geometry" />
        </mxCell>
        <mxCell id="HOJdj6KpHouWojMZXQ97-62" style="edgeStyle=orthogonalEdgeStyle;rounded=0;orthogonalLoop=1;jettySize=auto;html=1;" edge="1" parent="1" source="HOJdj6KpHouWojMZXQ97-51" target="HOJdj6KpHouWojMZXQ97-41">
          <mxGeometry relative="1" as="geometry" />
        </mxCell>
        <mxCell id="HOJdj6KpHouWojMZXQ97-51" value="Observer" style="swimlane;fontStyle=0;childLayout=stackLayout;horizontal=1;startSize=30;horizontalStack=0;resizeParent=1;resizeParentMax=0;resizeLast=0;collapsible=1;marginBottom=0;whiteSpace=wrap;html=1;" vertex="1" parent="1">
          <mxGeometry x="160" y="340" width="150" height="120" as="geometry" />
        </mxCell>
        <mxCell id="HOJdj6KpHouWojMZXQ97-52" value="Attach" style="text;strokeColor=none;fillColor=none;align=left;verticalAlign=middle;spacingLeft=4;spacingRight=4;overflow=hidden;points=[[0,0.5],[1,0.5]];portConstraint=eastwest;rotatable=0;whiteSpace=wrap;html=1;" vertex="1" parent="HOJdj6KpHouWojMZXQ97-51">
          <mxGeometry y="30" width="150" height="30" as="geometry" />
        </mxCell>
        <mxCell id="HOJdj6KpHouWojMZXQ97-53" value="Detach" style="text;strokeColor=none;fillColor=none;align=left;verticalAlign=middle;spacingLeft=4;spacingRight=4;overflow=hidden;points=[[0,0.5],[1,0.5]];portConstraint=eastwest;rotatable=0;whiteSpace=wrap;html=1;" vertex="1" parent="HOJdj6KpHouWojMZXQ97-51">
          <mxGeometry y="60" width="150" height="30" as="geometry" />
        </mxCell>
        <mxCell id="HOJdj6KpHouWojMZXQ97-54" value="Notify" style="text;strokeColor=none;fillColor=none;align=left;verticalAlign=middle;spacingLeft=4;spacingRight=4;overflow=hidden;points=[[0,0.5],[1,0.5]];portConstraint=eastwest;rotatable=0;whiteSpace=wrap;html=1;" vertex="1" parent="HOJdj6KpHouWojMZXQ97-51">
          <mxGeometry y="90" width="150" height="30" as="geometry" />
        </mxCell>
        <mxCell id="HOJdj6KpHouWojMZXQ97-64" value="main" style="rounded=1;whiteSpace=wrap;html=1;" vertex="1" parent="1">
          <mxGeometry x="540" y="130" width="120" height="60" as="geometry" />
        </mxCell>
      </root>
    </mxGraphModel>
  </diagram>
</mxfile>
